<svg xmlns="http://www.w3.org/2000/svg" viewBox="0 0 39 33.833"><defs><style>.a{fill:#fff;stroke:#fff;stroke-width:2px;}</style></defs><path class="a" d="M27,0a10.036,10.036,0,0,0-8.5,4.749A9.993,9.993,0,0,0,0,10a14.121,14.121,0,0,0,3.871,9.825c3.942,4.6,13.919,11.62,14.342,11.917a.5.5,0,0,0,.574,0c.423-.3,10.4-7.317,14.343-11.917A14.125,14.125,0,0,0,37,10,10.011,10.011,0,0,0,27,0Zm5.371,19.175C28.876,23.251,20.191,29.516,18.5,30.72c-1.691-1.2-10.376-7.469-13.87-11.545A13.2,13.2,0,0,1,1,10,9,9,0,0,1,18.052,6a.521.521,0,0,0,.9,0A8.994,8.994,0,0,1,36,10,13.2,13.2,0,0,1,32.371,19.175Z" transform="translate(1 1)"/></svg>