<svg xmlns="http://www.w3.org/2000/svg" viewBox="0 0 27.844 27"><defs><style>.a{fill:#00137b;}</style></defs><path class="a" d="M26.156,0H1.688A2.119,2.119,0,0,0,0,1.688V25.313A2.119,2.119,0,0,0,1.688,27H26.156a2.119,2.119,0,0,0,1.688-1.687V1.688A2.119,2.119,0,0,0,26.156,0ZM27,25.313a1.493,1.493,0,0,1-.844.844H1.688a1.493,1.493,0,0,1-.844-.844V1.688A1.493,1.493,0,0,1,1.688.844H26.156A1.493,1.493,0,0,1,27,1.688ZM13.922,4.641a1.688,1.688,0,1,0,1.688,1.688A1.689,1.689,0,0,0,13.922,4.641Zm0,2.531a.844.844,0,1,1,.844-.844A.845.845,0,0,1,13.922,7.172Zm6.75,10.969a1.688,1.688,0,1,0,1.688,1.688A1.689,1.689,0,0,0,20.672,18.141Zm0,2.531a.844.844,0,1,1,.844-.844A.845.845,0,0,1,20.672,20.672Zm-13.5-6.75a1.688,1.688,0,1,0,1.688,1.688A1.689,1.689,0,0,0,7.172,13.922Zm0,2.531a.844.844,0,1,1,.844-.844A.845.845,0,0,1,7.172,16.453Zm0-3.8a.422.422,0,0,0,.422-.422V4.641a.422.422,0,0,0-.844,0v7.594A.422.422,0,0,0,7.172,12.656Zm0,5.906a.422.422,0,0,0-.422.422v2.531a.422.422,0,0,0,.844,0V18.984A.422.422,0,0,0,7.172,18.563Zm6.75-9.281A.422.422,0,0,0,13.5,9.7V21.516a.422.422,0,0,0,.844,0V9.7A.422.422,0,0,0,13.922,9.281Zm6.75,7.594a.422.422,0,0,0,.422-.422V4.641a.422.422,0,0,0-.844,0V16.453A.422.422,0,0,0,20.672,16.875Z"/></svg>