<svg xmlns="http://www.w3.org/2000/svg" viewBox="0 0 48.282 41.818"><defs><style>.a{fill:#fff;stroke:#fff;stroke-width:2px;}</style></defs><path class="a" d="M33.773,0A12.554,12.554,0,0,0,23.141,5.94,12.5,12.5,0,0,0,0,12.509c0,4.656,1.448,8.331,4.842,12.29C9.773,30.552,22.253,39.333,22.782,39.7a.623.623,0,0,0,.718,0c.529-.372,13.009-9.153,17.941-14.906,3.392-3.959,4.841-7.634,4.841-12.29A12.523,12.523,0,0,0,33.773,0Zm6.718,23.985c-4.372,5.1-15.235,12.935-17.351,14.441C21.026,36.92,10.162,29.084,5.791,23.985c-3.183-3.714-4.541-7.146-4.541-11.477a11.254,11.254,0,0,1,21.33-5,.652.652,0,0,0,1.121,0,11.25,11.25,0,0,1,21.33,5C45.031,16.839,43.674,20.271,40.491,23.985Z" transform="translate(1 1)"/></svg>