<svg xmlns="http://www.w3.org/2000/svg" xmlns:xlink="http://www.w3.org/1999/xlink" viewBox="0 0 300.43 227.154"><defs><style>.a{fill:none;}.b,.d{fill:#00137b;}.c{clip-path:url(#a);}.d{font-size:124px;font-family:HelveticaNeue-Medium, Helvetica Neue;font-weight:500;}.e{fill:#fff;}</style><clipPath id="a"><path class="a" d="M4443.027,330.2l159.882-82.492,112.58-58.087V330.2Z" transform="translate(-4234 265.463)"/></clipPath></defs><g transform="translate(-779.394 -135)"><path class="b" d="M11.991,206.171H55.957a3.664,3.664,0,1,0,0-7.328H11.991A11,11,0,0,1,1,187.853V96.258H59.62a95.269,95.269,0,1,0,175.839,0H294.1v91.594a11,11,0,0,1-10.991,10.991H231.818a3.664,3.664,0,1,0,0,7.328h51.293a18.34,18.34,0,0,0,18.319-18.319V55.957S1.887,206.171,11.991,206.171Zm135.56,14.655A87.931,87.931,0,1,1,235.482,132.9,88.029,88.029,0,0,1,147.551,220.827Zm86.1-131.9a3.591,3.591,0,0,0-1.51.344,95.1,95.1,0,0,0-169.179,0,3.591,3.591,0,0,0-1.509-.344H1V55.957A11,11,0,0,1,11.991,44.965H66.948c17.352,0,22.122-14.347,22.21-21.983V15.655C89.158,9.764,95.013,1,111.14,1h73.048c15.344,0,21.983,9.7,21.983,14.655v7.328c0,7.606,4.594,21.983,21.983,21.983h54.957A11,11,0,0,1,294.1,55.957V88.931ZM63.284,30.31a3.665,3.665,0,0,0,3.664-3.664V19.319A11,11,0,0,0,55.957,8.328H26.646A11,11,0,0,0,15.655,19.319v7.328a3.664,3.664,0,0,0,7.328,0V19.319a3.67,3.67,0,0,1,3.664-3.664h29.31a3.67,3.67,0,0,1,3.664,3.664v7.328A3.665,3.665,0,0,0,63.284,30.31Zm84.267,36.638A65.948,65.948,0,1,0,213.5,132.9,66.024,66.024,0,0,0,147.551,66.948Zm0,124.568a58.62,58.62,0,1,1,58.62-58.62A58.689,58.689,0,0,1,147.551,191.516Z" transform="translate(778.393 134)"/><g class="c" transform="translate(584 -259)"><text class="d" transform="translate(311.085 555.853)"><tspan x="0" y="0">e</tspan></text></g><path class="e" d="M-3870.88,104.512h0c-.24-.606-.467-1.233-.675-1.863a43.5,43.5,0,0,1-2.047-13.639,38.746,38.746,0,0,1,2.17-12.958,33.313,33.313,0,0,1,6.2-10.789,29.784,29.784,0,0,1,9.734-7.377,29.657,29.657,0,0,1,12.9-2.728,28.868,28.868,0,0,1,13.578,3.161,29.936,29.936,0,0,1,9.981,8.37,33.155,33.155,0,0,1,4.717,8.644l-5.794,2.989-6.538,3.373a22.8,22.8,0,0,0-1.251-4.839,17.249,17.249,0,0,0-3.224-5.395,16.045,16.045,0,0,0-4.959-3.72,14.685,14.685,0,0,0-6.51-1.426,17.067,17.067,0,0,0-6.758,1.3,15.528,15.528,0,0,0-5.208,3.6,17.867,17.867,0,0,0-3.472,5.394,18.881,18.881,0,0,0-1.425,6.7h29.69l-18.025,9.3h-11.665a24.924,24.924,0,0,0,.648,5.684l-12.062,6.223Z" transform="translate(4773.027 175.853)"/></g></svg>