<svg xmlns="http://www.w3.org/2000/svg" viewBox="0 0 37.362 37.359"><defs><style>.a{fill:#00137b;}</style></defs><path class="a" d="M36.236,13.851l-13.9-3.729L19.9,1.041A1.467,1.467,0,0,0,18.079.054L1.124,4.6A1.461,1.461,0,0,0,.047,6.359L6.08,28.871a1.457,1.457,0,0,0,1.814.984l6.749-1.806-.919,3.434A1.459,1.459,0,0,0,14.8,33.245l15.15,4.061a1.461,1.461,0,0,0,1.815-.988l5.548-20.7a1.462,1.462,0,0,0-1.08-1.762ZM3.051,6.783,17.677,2.867l5.414,20.208L8.464,26.991,3.051,6.783ZM29.287,34.489l-12.728-3.48,1-3.74,7.288-1.956a1.459,1.459,0,0,0,1.08-1.762L23.111,13.041,34.22,16.088l-4.932,18.4Z" transform="translate(0 -0.001)"/></svg>