<svg xmlns="http://www.w3.org/2000/svg" viewBox="0 0 42 42"><defs><style>.a{fill:#fff;stroke:#00137b;}</style></defs><path class="a" d="M13.453,0a13.453,13.453,0,1,0,9.06,23.37.631.631,0,0,0,.1.146l2.756,2.756a2.538,2.538,0,0,0,.39,3.107L36.627,40.25a2.562,2.562,0,0,0,3.622-3.625L29.378,25.754a2.627,2.627,0,0,0-3.1-.383L23.516,22.61a.605.605,0,0,0-.146-.1A13.431,13.431,0,0,0,13.453,0ZM28.472,26.66,39.343,37.532a1.281,1.281,0,0,1,0,1.812,1.314,1.314,0,0,1-1.812,0L26.66,28.472a1.281,1.281,0,1,1,1.812-1.812ZM13.453,25.625A12.172,12.172,0,1,1,25.625,13.453,12.186,12.186,0,0,1,13.453,25.625Zm0-21.781a9.609,9.609,0,1,0,9.609,9.609A9.619,9.619,0,0,0,13.453,3.844Zm0,17.938a8.328,8.328,0,1,1,8.328-8.328A8.338,8.338,0,0,1,13.453,21.781Z" transform="translate(0.5 0.5)"/></svg>